<?xml version="1.0" encoding="UTF-8"?>
<svg xmlns="http://www.w3.org/2000/svg" width="41.89" height="37.926" viewBox="0 0 41.89 37.926">
  <g id="Group_41" data-name="Group 41" transform="translate(-78.577 -24.334)">
    <path id="Path_39" data-name="Path 39" d="M110.484,46.192l.051-.065L115.12,39.1l-5.81-7.676c-.343,2.1-2.344,8.812-2.344,8.812s-.223-.686-3.569-7.621c-3.257-6.767-6.558-7.244-6.558-7.244-4.6-1.458-9.54,1.568-9.54,1.568s-7.5,3.346-8.617,16.917c-1.1,13.345,6.623,18,6.623,18s3.819,2.344,9.838,0c2.776-1.081,6.575-5.017,9.715-8.647l5.6,9.656h9.862ZM92.27,56.209s-3.208-.161-3.9-7.621a28.188,28.188,0,0,1,1.373-12.4S92,30.349,94.792,32.857c2.639,2.381,7.337,14.838,7.337,14.838-6.177,9.488-9.862,8.514-9.862,8.514" transform="translate(0 -0.639)" fill="#ffffff"></path>
    <path id="Path_40" data-name="Path 40" d="M171.66,29.99l6.877,8.9,3.071-8.9Z" transform="translate(-61.142 -3.935)" fill="#ffffff"></path>
  </g>
</svg>
